<?xml version="1.0" encoding="utf-8"?>
<!-- Generator: Adobe Illustrator 16.0.0, SVG Export Plug-In . SVG Version: 6.00 Build 0)  -->
<!DOCTYPE svg PUBLIC "-//W3C//DTD SVG 1.1//EN" "http://www.w3.org/Graphics/SVG/1.1/DTD/svg11.dtd">
<svg version="1.1" id="Layer_1" xmlns="http://www.w3.org/2000/svg" xmlns:xlink="http://www.w3.org/1999/xlink" x="0px" y="0px"
	 width="612px" height="792px" viewBox="0 0 612 792" enable-background="new 0 0 612 792" xml:space="preserve">
<g>
	<g>
		<g>
			<g>
				<path fill="#B21F24" d="M351.159,589.662c-53.415,55.357-138.787,71.195-210.076,33.356
					c-86.436-45.907-119.27-152.963-73.492-239.23c16.491-31.078,40.696-55.134,69.365-71.083
					c-11.355,11.467-21.161,24.952-29.08,39.912C62.1,438.903,94.915,545.958,181.351,591.828
					C236.577,621.188,300.415,618.35,351.159,589.662z"/>
			</g>
			<g>
				<path fill="#B21F24" d="M107.278,613.12c-10.122,16.024-31.32,20.769-47.364,10.646c-16.043-10.123-20.861-31.265-10.738-47.327
					c10.141-16.062,31.357-20.843,47.401-10.683C112.602,575.916,117.383,597.058,107.278,613.12z"/>
			</g>
		</g>
	</g>
	<g>
		<path fill="#636467" d="M112.602,212.952c-16.23,9.769-37.335,4.539-47.103-11.691c-9.806-16.23-4.576-37.354,11.691-47.121
			c16.23-9.75,37.298-4.521,47.065,11.71C134.061,182.08,128.832,203.166,112.602,212.952z"/>
		<path fill="#636467" d="M51.305,532.138c-6.388-7.77-12.196-16.137-17.538-25.027c-65.424-108.623-30.387-249.838,78.2-315.263
			c108.661-65.443,249.838-30.387,315.281,78.236c5.342,8.909,10.086,17.93,13.896,27.193
			c-70.673-88.64-197.954-113.293-297.707-53.229C43.685,304.15,5.995,428.146,51.305,532.138z"/>
	</g>
	<g>
		<g>
			<path fill="#B21F24" d="M228.099,433.524c6.126,0,10.271,4.408,10.271,10.235c0,5.977-4.295,10.31-10.271,10.31
				c-6.257,0-10.403-4.333-10.403-10.31C217.695,437.559,222.122,433.524,228.099,433.524z M218.312,424.037v-72.484h19.293v72.484
				H218.312z"/>
		</g>
	</g>
	<path fill="#B21F24" d="M404.238,398.263v51.922c-5.827,2.166-17.107,4.931-28.463,4.931c-15.203,0-26.82-3.885-35.262-12.252
		c-8.592-8.442-13.522-22.113-13.522-37.971c0-33.86,22.487-51.939,51.249-51.939c10.16,0,18.603,1.83,23.421,4.184l-3.997,15.875
		c-4.557-2.092-10.31-3.66-19.125-3.66c-17.854,0-31.377,10.944-31.377,35.149c0,23.122,12.364,34.851,28.912,34.851
		c4.632,0,8.143-0.672,9.861-1.419v-24.467h-14.456v-15.203H404.238z"/>
	<path fill="#B21F24" d="M481.598,381.585v50.371c0,8.591,0.411,15.987,0.635,22.113h-16.734l-0.934-9.638h-0.411
		c-2.988,4.707-9.637,11.057-20.806,11.057c-13.783,0-23.159-8.965-23.159-30.704v-43.199h19.274v40.36
		c0,10.907,3.138,17.78,11.057,17.78c6.238,0,11.841-5.305,11.841-13.522v-44.618H481.598z"/>
	<path fill="#636467" d="M539.01,381.585h20.021l-16.361,50.371c-8.067,23.383-14.193,36.157-22.411,44.375
		c-6.985,6.724-14.419,9.339-18.677,10.086l-4.856-16.212c3.138-0.896,6.799-2.988,10.16-5.379
		c6.388-4.557,9.638-11.952,9.638-13.372c0-0.821-0.299-1.867-0.822-3.287l-24.279-66.582h21.067l10.646,37.82
		c1.195,4.482,2.503,9.563,3.399,13.597h0.373c0.822-3.96,1.942-8.965,2.988-13.597L539.01,381.585z"/>
	<path fill="#B21F24" d="M567.548,436.588c3.81,2.241,10.907,4.855,16.884,4.855c6.798,0,10.011-2.913,10.011-7.321
		c0-4.407-2.428-6.724-10.385-10.085c-13.521-5.528-18.452-13.168-18.452-21.124c0-12.999,10.384-22.879,26.521-22.879
		c7.396,0,13.821,1.812,17.968,4.034l-3.624,13.522c-3.138-1.7-8.218-3.754-13.671-3.754c-5.864,0-8.965,2.987-8.965,6.892
		c0,4.015,2.689,6.106,11.057,9.6c12.215,5.08,17.93,12.065,17.93,22.15c0,13.821-10.385,22.86-28.464,22.86
		c-7.993,0-15.613-1.942-20.47-4.781L567.548,436.588z"/>
	<path fill="#636467" d="M496.688,469.906l4.894,16.585H196.03v-16.585"/>
	<g>
		<g>
			<g>
				<g>
					<path fill="#636467" d="M127.001,455.563h11.748v14.343h58.738v16.66h-58.738v49.53h-11.748V455.563z"/>
				</g>
			</g>
			<path fill="#636467" d="M152.607,434.57c-5.323-3.66-7.266-9.188-7.266-13.597c0-9.096,6.611-16.268,21.646-16.268h30.499v13.578
				H168.09c-6.518,0-11.542,2.018-11.542,7.845c0,3.437,2.372,8.666,9.992,8.666h30.947v13.597h-73.68v-13.597h28.8V434.57z"/>
			<path fill="#636467" d="M176.065,382.443c8.703-0.392,12.195-6.593,12.195-13.914c0-5.062-0.934-9.002-2.129-12.494l9.357-1.924
				c1.83,4.221,2.932,10.16,2.932,16.51c0,15.764-9.898,24.766-25.755,24.766c-14.68,0-27.324-8.461-27.324-23.402
				c0-12.363,8.815-20.432,25.288-20.432c2.036,0,3.941,0.093,5.436,0.354V382.443z M166.633,364.104
				c-5.322-0.094-11.841,2.035-11.841,8.722c0,6.48,6.78,9.227,11.841,9.618V364.104z"/>
		</g>
	</g>
	<g>
		
			<text transform="matrix(0.8685 0 0 1 145.375 524.4063)" fill="#636467" font-family="'AdobeGothicStd-Bold-KSCpc-EUC-H'" font-size="27.6446">Building Solutions | Finding Talent</text>
	</g>
	<path fill="#636467" d="M335.434,264.295l5.192,64.846h-53.64v124.704h-26.951V329.141h-34.402v-23.309L335.434,264.295z"/>
	<g>
		<g>
			<g>
				<g>
					<g>
						<path fill="#636467" d="M223.766,303.908c-5.902,5.678-3.138,16.268-3.138,16.268s1.102,10.869,8.572,14.156
							c8.479,3.698,63.108-6.368,117.065,23.402l-10.384-58.159l-10.385-58.178C285.175,288.014,230.433,297.483,223.766,303.908z"
							/>
					</g>
				</g>
			</g>
			<g>
				<path fill="#ED2224" d="M250.828,292.534L250.828,292.534c-14.045,5.733-24.411,8.777-27.063,11.374
					c-5.902,5.678-3.138,16.268-3.138,16.268s1.102,10.869,8.572,14.156c3.343,1.457,13.858,0.804,28.632,1.252
					C246.98,315.749,250.828,292.534,250.828,292.534z"/>
			</g>
			<g>
				<path fill="#E7E7E7" d="M338.496,314.068c-7.919-4.875-13.783-8.068-13.783-8.068c-13.671,30.069-57.674,23.103-77.284,25.531
					c-19.573,2.409-25.251-5.323-25.251-5.323l0,0c1.214,3.082,3.343,6.519,7.022,8.124c8.479,3.698,63.108-6.368,117.065,23.402
					L338.496,314.068z"/>
			</g>
			<path opacity="0.7" fill="#FFFFFF" d="M235.531,301.61c0,0,45.067-14.586,57.282-27.697l0.037,16.585
				C292.851,290.498,264.667,302.396,235.531,301.61z"/>
		</g>
		<g>
			<g>
				<path fill="#B21F24" d="M326.058,241.285l-22.244,16.342c0,0-10.664,47.868,16.604,92.73l26.446,7.283L326.058,241.285z"/>
				<g>
					<path fill="#ED2224" d="M355.156,296.12c5.752,32.124,2.017,59.672-8.293,61.521c-10.347,1.85-23.383-22.711-29.136-54.835
						c-5.752-32.161-2.017-59.672,8.33-61.521C336.404,239.455,349.403,263.996,355.156,296.12z"/>
				</g>
				<g>
					<g>
						<path fill="#921A1C" d="M350.674,296.923c5.154,28.781,3.324,53.191-4.109,54.48c-7.358,1.345-17.556-20.918-22.711-49.699
							c-5.117-28.781-3.287-53.173,4.109-54.479C335.358,245.88,345.519,268.142,350.674,296.923z"/>
					</g>
				</g>
				<g opacity="0.4">
					<path fill="#AA732A" d="M348.246,344.791c-7.247,1.326-17.221-20.507-22.263-48.709c-3.549-19.872-3.661-37.559-0.935-46.766
						c-4.855,6.611-5.528,27.884-1.195,52.388c5.155,28.781,15.353,51.044,22.711,49.699c3.026-0.505,5.08-4.875,6.164-11.748
						C351.645,342.644,350.15,344.474,348.246,344.791z"/>
				</g>
				<g>
					<defs>
						<path id="SVGID_1_" d="M350.674,296.923c5.154,28.781,3.324,53.191-4.109,54.48c-7.358,1.345-17.556-20.918-22.711-49.699
							c-5.117-28.781-3.287-53.173,4.109-54.479C335.358,245.88,345.519,268.142,350.674,296.923z"/>
					</defs>
					<clipPath id="SVGID_2_">
						<use xlink:href="#SVGID_1_"  overflow="visible"/>
					</clipPath>
				</g>
			</g>
			<g>
				<path fill="#636467" d="M331.362,330.41l8.218-11.767l-6.574-34.664l-11.692-2.633
					C321.313,281.347,322.099,304.805,331.362,330.41z"/>
			</g>
			<g>
				<path fill="#898989" d="M342.829,300.173c1.831,9.6,0.374,17.836-3.249,18.471c-3.624,0.636-8.031-6.667-9.824-16.229
					c-1.83-9.563-0.374-17.799,3.25-18.435C336.629,283.382,341.036,290.647,342.829,300.173z"/>
			</g>
		</g>
	</g>
</g>
</svg>
